<?xml version="1.0" encoding="UTF-8" standalone="no"?>
<!-- Created with Inkscape (http://www.inkscape.org/) -->

<svg
   version="1.1"
   id="svg48"
   width="1472.3066"
   height="395.74658"
   viewBox="0 0 1472.3066 395.74658"
   xmlns="http://www.w3.org/2000/svg"
   xmlns:svg="http://www.w3.org/2000/svg">
  <defs
     id="defs52" />
  <g
     id="g56"
     transform="matrix(1.3333333,0,0,-1.3333333,-508.80344,6217.4976)">
    <g
       id="g58"
       transform="scale(0.1)">
      <g
         id="g1223">
        <path
           d="m 8192.236,45500.134 -243.43,-244.6 c -12.18,34.1 -28.81,64.7 -49.9,91.9 -21.11,27.1 -44.85,50.1 -71.2,68.7 -26.38,18.7 -54.99,32.9 -85.81,42.6 -30.85,9.8 -62.5,14.6 -94.94,14.6 -45.45,0 -88.23,-9.3 -128.4,-28 -40.16,-18.6 -75.07,-44.8 -104.67,-78.5 -29.63,-33.6 -52.95,-73.6 -69.99,-119.8 -17.04,-46.3 -25.56,-97.4 -25.56,-153.4 0,-45.5 8.52,-88 25.56,-127.8 17.04,-39.8 40.36,-74.7 69.99,-104.7 29.6,-30 64.51,-53.5 104.67,-70.6 40.17,-17 82.95,-25.5 128.4,-25.5 32.44,0 63.69,4.4 93.73,13.4 30,8.9 58.21,21.7 84.58,38.3 26.36,16.6 49.9,36.9 70.6,60.9 20.68,23.9 37.52,50.5 50.51,79.7 l 243.41,-244.7 c -30.84,-43.8 -66.32,-83.1 -106.49,-118 -40.17,-34.9 -83.58,-64.5 -130.23,-88.9 -46.67,-24.3 -95.75,-42.8 -147.28,-55.3 -51.52,-12.6 -104.47,-18.9 -158.83,-18.9 -91.7,0 -177.9,17.2 -258.63,51.7 -80.75,34.5 -151.34,81.8 -211.78,141.8 -60.46,60 -108.14,130.2 -143.01,210.6 -34.9,80.3 -52.34,166.3 -52.34,258 0,99.8 17.44,193.1 52.34,279.9 34.87,86.9 82.55,162.5 143.01,227 60.44,64.5 131.03,115.4 211.78,152.8 80.73,37.3 166.93,56 258.63,56 54.36,0 107.72,-6.9 160.06,-20.7 52.33,-13.8 102.23,-33.9 149.7,-60.3 47.47,-26.4 91.28,-58.6 131.45,-96.7 40.16,-38.2 74.85,-82 104.07,-131.5"
           style="fill:#000000;fill-opacity:1;fill-rule:nonzero;stroke:none"
           id="path298-7" />
        <path
           d="m 9354.626,45119.234 c 0,55.1 -8.8,104.6 -26.2,148.4 -17.5,43.9 -41.2,81 -71.2,111.4 -30,30.4 -65.3,53.8 -105.91,70 -40.58,16.2 -83.58,24.3 -129.01,24.3 -45.46,0 -88.24,-8.1 -128.41,-24.3 -40.17,-16.2 -75.27,-39.6 -105.27,-70 -30.03,-30.4 -53.77,-67.5 -71.21,-111.4 -17.46,-43.8 -26.17,-93.3 -26.17,-148.4 0,-52.8 8.71,-101.1 26.17,-144.9 17.44,-43.8 41.18,-81.1 71.21,-112 30,-30.8 65.1,-54.7 105.27,-71.8 40.17,-17 82.95,-25.5 128.41,-25.5 45.43,0 88.43,8.5 129.01,25.5 40.61,17.1 75.91,41 105.91,71.8 30,30.9 53.7,68.2 71.2,112 17.4,43.8 26.2,92.1 26.2,144.9 z m -665.81,-1160 h -334.71 v 1800.2 h 80.33 l 132.66,-157 c 30.01,28.3 62.88,55.1 98.6,80.3 35.69,25.1 72.81,46.8 111.35,65.1 38.54,18.3 78.52,32.7 119.89,43.2 41.39,10.5 83.17,15.8 125.37,15.8 91.68,0 177.92,-16.4 258.62,-49.3 80.7,-32.8 151.3,-79.3 211.8,-139.3 60.4,-60.1 108.1,-132.5 143,-217.3 34.9,-84.8 52.3,-178.7 52.3,-281.7 0,-107.1 -17.4,-203.5 -52.3,-289.1 -34.9,-85.6 -82.6,-158.2 -143,-217.9 -60.5,-59.6 -131.1,-105.3 -211.8,-136.9 -80.7,-31.6 -166.94,-47.5 -258.62,-47.5 -29.21,0 -58.23,3.3 -87.02,9.8 -28.82,6.5 -57.21,15.2 -85.2,26.1 -28,11 -55.59,23.4 -82.77,37.2 -27.19,13.8 -53.36,28 -78.5,42.6 v -584.3"
           style="fill:#000000;fill-opacity:1;fill-rule:nonzero;stroke:none"
           id="path300-9" />
        <path
           d="m 10515.726,44455.834 c -80.3,0 -155.8,15.2 -226.4,45.7 -70.6,30.4 -132.5,72.2 -185.6,125.3 -53.2,53.2 -94.9,115.1 -125.4,185.6 -30.4,70.6 -45.6,146.1 -45.6,226.4 v 387.1 h -161.9 v 331 h 161.9 v 521 h 331 v -521 h 503.9 v -331 h -503.9 v -387.1 c 0,-34.9 6.5,-67.5 19.5,-97.9 13,-30.5 30.8,-57.1 53.6,-79.8 22.7,-22.7 49.5,-40.7 80.3,-54.1 30.8,-13.4 63.7,-20.1 98.6,-20.1 h 251.9 v -331.1 h -251.9"
           style="fill:#000000;fill-opacity:1;fill-rule:nonzero;stroke:none"
           id="path302-3" />
        <path
           d="m 11286.126,44455.834 h -332.3 v 1303.6 h 80.4 l 109.5,-126.6 c 53.6,48.7 114.2,86.2 182,112.6 67.7,26.3 138.5,39.5 212.4,39.5 79.5,0 154.5,-15.2 225.1,-45.6 70.6,-30.4 132.3,-72.2 185,-125.4 52.8,-53.1 94.4,-115.2 124.8,-186.2 30.4,-71 45.6,-146.7 45.6,-227 v -744.9 h -332.3 v 744.9 c 0,34.1 -6.5,66.3 -19.4,96.8 -13,30.4 -30.9,57 -53.6,79.7 -22.7,22.7 -49.1,40.6 -79.1,53.5 -30,13 -62.1,19.5 -96.1,19.5 -34.9,0 -67.8,-6.5 -98.6,-19.5 -30.9,-12.9 -57.7,-30.8 -80.4,-53.5 -22.7,-22.7 -40.6,-49.3 -53.5,-79.7 -13,-30.5 -19.5,-62.7 -19.5,-96.8 v -744.9"
           style="fill:#000000;fill-opacity:1;fill-rule:nonzero;stroke:none"
           id="path304-8" />
        <path
           d="m 12763.726,44580.034 c 0,-29.2 -5.3,-56.6 -15.8,-82.2 -10.6,-25.5 -25.2,-47.6 -43.8,-66.3 -18.7,-18.7 -40.6,-33.5 -65.8,-44.4 -25.1,-11 -52.3,-16.5 -81.5,-16.5 -28.4,0 -55.4,5.5 -80.9,16.5 -25.6,10.9 -47.9,25.7 -67,44.4 -19.1,18.7 -34.1,40.8 -45,66.3 -11,25.6 -16.5,53 -16.5,82.2 0,28.4 5.5,55.1 16.5,80.3 10.9,25.1 25.9,47.1 45,65.7 19.1,18.7 41.4,33.5 67,44.5 25.5,10.9 52.5,16.4 80.9,16.4 29.2,0 56.4,-5.5 81.5,-16.4 25.2,-11 47.1,-25.8 65.8,-44.5 18.6,-18.6 33.2,-40.6 43.8,-65.7 10.5,-25.2 15.8,-51.9 15.8,-80.3"
           style="fill:#000000;fill-opacity:1;fill-rule:nonzero;stroke:none"
           id="path306-0" />
        <path
           d="m 13345.526,44455.834 h -334.7 v 1303.6 h 334.7 z m 57.2,1657.7 c 0,-30.8 -5.9,-59.6 -17.7,-86.4 -11.7,-26.7 -27.8,-50.1 -48,-70 -20.3,-19.8 -44.1,-35.7 -71.2,-47.4 -27.2,-11.8 -56.2,-17.7 -87.1,-17.7 -30.8,0 -59.8,5.9 -87,17.7 -27.2,11.7 -50.7,27.6 -70.6,47.4 -19.9,19.9 -35.7,43.3 -47.5,70 -11.7,26.8 -17.6,55.6 -17.6,86.4 0,30.1 5.9,58.7 17.6,85.9 11.8,27.1 27.6,50.7 47.5,70.6 19.9,19.8 43.4,35.6 70.6,47.4 27.2,11.8 56.2,17.7 87,17.7 30.9,0 59.9,-5.9 87.1,-17.7 27.1,-11.8 50.9,-27.6 71.2,-47.4 20.2,-19.9 36.3,-43.5 48,-70.6 11.8,-27.2 17.7,-55.8 17.7,-85.9"
           style="fill:#000000;fill-opacity:1;fill-rule:nonzero;stroke:none"
           id="path308-2" />
        <path
           d="m 14523.626,45119.234 c 0,53.5 -8.7,102 -26.1,145.4 -17.5,43.4 -41.2,80.7 -71.2,112 -30,31.2 -65.1,55.2 -105.3,71.8 -40.2,16.6 -83,24.9 -128.4,24.9 -45.5,0 -88.3,-8.3 -128.4,-24.9 -40.2,-16.6 -75.1,-40.6 -104.7,-71.8 -29.6,-31.3 -52.9,-68.6 -70,-112 -17,-43.4 -25.5,-91.9 -25.5,-145.4 0,-50.4 8.5,-97 25.5,-140 17.1,-43 40.4,-80.3 70,-112 29.6,-31.6 64.5,-56.6 104.7,-74.8 40.1,-18.3 82.9,-27.4 128.4,-27.4 45.4,0 88.2,8.5 128.4,25.5 40.2,17.1 75.3,41 105.3,71.8 30,30.9 53.7,68.2 71.2,112 17.4,43.8 26.1,92.1 26.1,144.9 z m 334.7,0 c 0,-97.4 -17.4,-188.1 -52.3,-272.1 -34.9,-83.9 -82.3,-156.6 -142.4,-217.8 -60,-61.3 -130.4,-109.6 -211.2,-144.9 -80.7,-35.3 -167.3,-52.9 -259.8,-52.9 -91.7,0 -177.9,17.6 -258.6,52.9 -80.8,35.3 -151.4,83.6 -211.8,144.9 -60.5,61.2 -108.2,133.9 -143,217.8 -34.9,84 -52.4,174.7 -52.4,272.1 0,98.9 17.5,190.6 52.4,275 34.8,84.4 82.5,157.2 143,218.5 60.4,61.3 131,109.3 211.8,144.2 80.7,34.9 166.9,52.4 258.6,52.4 92.5,0 179.1,-16.5 259.8,-49.3 80.8,-32.9 151.2,-79.6 211.2,-140 60.1,-60.5 107.5,-133.1 142.4,-217.9 34.9,-84.8 52.3,-179.1 52.3,-282.9"
           style="fill:#000000;fill-opacity:1;fill-rule:nonzero;stroke:none"
           id="path310-4" />
        <path
           d="m 6456.4859,44952.234 51.45,521 -1049.06,-783.4 -16.92,-489.5 1014.53,751.9"
           style="fill:#3871c1;fill-opacity:1;fill-rule:nonzero;stroke:none"
           id="path312-8" />
        <path
           d="m 5866.0759,44514.634 -190.08,-140.8 v 0 l 190.07,140.8"
           style="fill:#3871c1;fill-opacity:1;fill-rule:nonzero;stroke:none"
           id="path314-3" />
        <path
           d="m 5918.6959,44854.534 -242.7,-480.7 190.08,140.8 52.62,339.9"
           style="fill:#293c88;fill-opacity:1;fill-rule:nonzero;stroke:none"
           id="path316-9" />
        <path
           d="m 6507.9359,45473.234 -557.95,-416.7 -136.86,-883.8 559.26,-509.6 135.55,1810.1"
           style="fill:#5dcbef;fill-opacity:1;fill-rule:nonzero;stroke:none"
           id="path318-0" />
        <path
           d="m 4890.2759,44454.134 425.52,-305.1 -153.93,1300.2 -415.42,259.4 143.83,-1254.5"
           style="fill:#6f48a8;fill-opacity:1;fill-rule:nonzero;stroke:none"
           id="path320-5" />
        <path
           d="m 5074.5859,44968.634 -268,215.6 -26.96,235 294.96,-450.6"
           style="fill:#443498;fill-opacity:1;fill-rule:nonzero;stroke:none"
           id="path322-2" />
        <path
           d="m 5315.7959,44149.034 -81.86,691.5 -696.96,560.4 -720.95,-229.5 1499.77,-1022.4"
           style="fill:#885bb3;fill-opacity:1;fill-rule:nonzero;stroke:none"
           id="path324-2" />
        <path
           d="m 5242.0259,46059.534 -476.96,-216 1202.99,-516.8 432.34,230.1 -1158.37,502.7"
           style="fill:#298341;fill-opacity:1;fill-rule:nonzero;stroke:none"
           id="path326-7" />
        <path
           d="m 6133.1459,45672.834 -176.18,76.4 176.19,-76.4"
           style="fill:#14181c;fill-opacity:1;fill-rule:nonzero;stroke:none"
           id="path328-3" />
        <path
           d="m 5595.5059,45642.634 320.63,124.3 40.83,-17.7 176.18,-76.4 -537.64,-30.2"
           style="fill:#1d3d1c;fill-opacity:1;fill-rule:nonzero;stroke:none"
           id="path330-7" />
        <path
           d="m 4765.0659,45843.534 639.8,-274.8 833.83,323.3 161.69,739.2 -1635.32,-787.7"
           style="fill:#7dd08b;fill-opacity:1;fill-rule:nonzero;stroke:none"
           id="path332-9" />
      </g>
    </g>
  </g>
</svg>
