<svg xmlns="http://www.w3.org/2000/svg" data-name="Layer 1" width="1036.608" height="758.00135" viewBox="0 0 1036.608 758.00135" xmlns:xlink="http://www.w3.org/1999/xlink"><title>team work</title><circle cx="578.6059" cy="373.0001" r="373.0001" fill="#f2f2f2"/><circle cx="692.60735" cy="136.00133" r="97.00003" fill="#ff6584"/><path d="M367.65967,143.48288l2.6516,55.27651c10.99078,14.659,22.84767,31.43392,34.54983,49.71627l1.67078-84.33.922.5892c-13.53627-9.66979-27.29643-17.06809-40.71613-21.76435Z" transform="translate(-81.696 -70.99933)" fill="#6c63ff"/><path d="M368.3786,196.19132l-2.5679-53.5448c-15.07148-5.14-29.69492-6.84517-43.06184-4.46133-.69544.12406-1.379.26678-2.06115.41162C324.08421,142.24054,343.87658,163.76,368.3786,196.19132Z" transform="translate(-81.696 -70.99933)" fill="#6c63ff"/><path d="M490.07183,262.13808l.88952.84894q-5.479-10.30509-11.6157-20.03821l-24.92452,98.07238-.42178-.37179q2.703,6.45351,5.141,12.81913Z" transform="translate(-81.696 -70.99933)" fill="#6c63ff"/><path d="M452.1018,206.38231l.91784.73454a258.75308,258.75308,0,0,0-44.62813-41.70056l-1.70334,85.93682q16.33464,25.77809,29.24938,50.782Z" transform="translate(-81.696 -70.99933)" fill="#6c63ff"/><path d="M271.298,233.21207a216.05206,216.05206,0,0,0,8.53693,42.70075L428.4666,291.24349c-7.75926-14.30852-15.76912-27.73261-23.545-39.9674L271.67588,234.38064Z" transform="translate(-81.696 -70.99933)" fill="#6c63ff"/><path d="M285.24235,291.95331l-.40027-1.16638,150.4288,13.37115q-2.72561-5.3321-5.51268-10.5226L280.578,278.24825l-.39215-1.1681Q282.4412,284.43446,285.24235,291.95331Z" transform="translate(-81.696 -70.99933)" fill="#6c63ff"/><path d="M477.65163,240.904l.90457.79736a309.00249,309.00249,0,0,0-24.66716-33.563l-16.38263,97.0477q8.517,16.7218,15.42839,32.97307Z" transform="translate(-81.696 -70.99933)" fill="#6c63ff"/><path d="M474.47058,403.01786c5.97847,25.87063,8.24367,50.33182,6.74833,73.11331,8.41215-17.92372,40.40341-92.17742,28.44489-161.37944Z" transform="translate(-81.696 -70.99933)" fill="#6c63ff"/><path d="M312.8378,344.25615A298.92417,298.92417,0,0,0,338.787,374.71671l-.363-1.29619L472.235,400.9488a371.62857,371.62857,0,0,0-13.01016-42.59606Z" transform="translate(-81.696 -70.99933)" fill="#6c63ff"/><path d="M367.22384,197.09429c-26.51837-35.08171-47.44238-57.25487-47.74344-57.57226l.3448-.73906c-20.12351,4.56852-34.3318,18.26-42.14953,38.07741Z" transform="translate(-81.696 -70.99933)" fill="#6c63ff"/><path d="M460.37863,356.7603c.49405,1.31967.99669,2.64242,1.47365,3.95615a369.221,369.221,0,0,1,11.70288,38.43477l34.8594-87.42941.85144.854a146.38014,146.38014,0,0,0-11.12914-35.2288q-3.08439-6.60243-6.45758-13.00567Z" transform="translate(-81.696 -70.99933)" fill="#6c63ff"/><path d="M403.36439,248.83838c-11.582-18.0666-23.30476-34.63985-34.16983-49.12637l-91.60274-20.69883-.31052-1.15609c-5.71855,15.05961-7.80946,33.56014-6.07745,54.22341Z" transform="translate(-81.696 -70.99933)" fill="#6c63ff"/><path d="M472.777,403.2453l-132.83172-27.327C395.81693,433.273,473.985,477.25955,478.97431,480.0399,481.302,454.77022,478.662,428.814,472.777,403.2453Z" transform="translate(-81.696 -70.99933)" fill="#6c63ff"/><path d="M458.28368,355.998l.02963-.08747A501.54109,501.54109,0,0,0,436.478,306.536L285.679,293.13178q3.84039,10.16954,8.68059,20.55693a179.71111,179.71111,0,0,0,16.70056,28.13239Z" transform="translate(-81.696 -70.99933)" fill="#6c63ff"/><path d="M650.10683,329.66974l-33.21394,44.26462c-.88474,18.30027-2.452,38.78267-5.09988,60.32736l55.07374-63.88442.33432,1.04187c-4.258-16.08122-10.13714-30.55575-17.47751-42.732Z" transform="translate(-81.696 -70.99933)" fill="#6c63ff"/><path d="M617.04232,370.72377l32.1739-42.87748c-8.32955-13.57157-18.50476-24.212-30.32028-30.90156-.61474-.348-1.23226-.67409-1.85-.99761C617.33785,300.91982,618.85627,330.11778,617.04232,370.72377Z" transform="translate(-81.696 -70.99933)" fill="#6c63ff"/><path d="M668.70734,499.13305l.14363,1.22119q2.3529-11.43142,3.83438-22.84188l-81.74864,59.63709-.08773-.55537q-2.03435,6.69441-4.21666,13.15218Z" transform="translate(-81.696 -70.99933)" fill="#6c63ff"/><path d="M675.02508,431.97269l.23841,1.15114a258.75321,258.75321,0,0,0-7.77487-60.58182l-56.12369,65.10122q-3.86088,30.27251-9.86195,57.76745Z" transform="translate(-81.696 -70.99933)" fill="#6c63ff"/><path d="M518.65944,337.31729A216.052,216.052,0,0,0,497.99931,375.65L602.69576,482.257c3.15009-15.96925,5.54306-31.41715,7.3577-45.79983l-91.8483-97.99882Z" transform="translate(-81.696 -70.99933)" fill="#6c63ff"/><path d="M491.9332,391.45311l.43565-1.15363L599.69922,496.54355q1.30167-5.84515,2.46567-11.62046L497.08207,377.92263l.443-1.14977Q494.57142,383.87556,491.9332,391.45311Z" transform="translate(-81.696 -70.99933)" fill="#6c63ff"/><path d="M672.68482,474.857l.18812,1.19107a309.003,309.003,0,0,0,2.40863-41.583l-74.51622,64.296q-4.10574,18.31124-9.14793,35.236Z" transform="translate(-81.696 -70.99933)" fill="#6c63ff"/><path d="M566.83618,597.68648c-11.89613,23.73845-25.75321,44.023-41.43528,60.6153,17.911-8.43927,89.91043-45.22419,124.83819-106.15018Z" transform="translate(-81.696 -70.99933)" fill="#6c63ff"/><path d="M479.8274,449.337a298.92409,298.92409,0,0,0,.5576,40.0112l.54711-1.22988L566.434,594.667a371.62913,371.62913,0,0,0,17.14812-41.10511Z" transform="translate(-81.696 -70.99933)" fill="#6c63ff"/><path d="M615.577,370.68271c1.95147-43.93338-.02161-74.35657-.05105-74.793l.73695-.34929c-18.41279-9.31645-38.08847-7.83372-56.74948,2.44322Z" transform="translate(-81.696 -70.99933)" fill="#6c63ff"/><path d="M585.48647,553.07133c-.4612,1.33151-.91773,2.67087-1.38831,3.98691a369.21979,369.21979,0,0,1-15.50083,37.06633l82.61213-45.10337.11111,1.20076a146.38036,146.38036,0,0,0,13.89791-34.23118q1.83555-7.0524,3.32165-14.13557Z" transform="translate(-81.696 -70.99933)" fill="#6c63ff"/><path d="M610.40891,433.58646c2.60284-21.30186,4.14474-41.54338,5.0163-59.63065l-57.34945-74.36763.49821-1.08846c-14.00961,7.95137-27.41992,20.86668-39.2653,37.886Z" transform="translate(-81.696 -70.99933)" fill="#6c63ff"/><path d="M565.38675,596.78148l-84.876-105.769c6.45008,79.80973,38.599,163.54452,40.66837,168.86817C539.08922,641.90278,553.61125,620.22775,565.38675,596.78148Z" transform="translate(-81.696 -70.99933)" fill="#6c63ff"/><path d="M584.35918,551.148l.07862-.04847a501.54085,501.54085,0,0,0,14.67446-51.95464L491.51789,392.63924q-3.52845,10.28193-6.42582,21.36934a179.71141,179.71141,0,0,0-5.08066,32.31914Z" transform="translate(-81.696 -70.99933)" fill="#6c63ff"/><path d="M318.93481,388.76732l19.60756,51.75005c14.9836,10.54391,31.445,22.83248,48.22508,36.60245L362.29028,396.403l1.059.27536c-15.86231-5.01225-31.23543-7.795-45.44957-8.11334Z" transform="translate(-81.696 -70.99933)" fill="#6c63ff"/><path d="M335.91055,438.67244l-18.99268-50.129c-15.92219-.22971-30.3566,2.66864-42.33211,9.06742-.623.33294-1.229.68-1.833,1.02856C277.10922,401.05486,302.584,415.4028,335.91055,438.67244Z" transform="translate(-81.696 -70.99933)" fill="#6c63ff"/><path d="M472.02847,463.77482l1.10836.53242q-8.39593-8.10693-17.24063-15.46657l6.60989,100.97392-.516-.22321q4.56535,5.302,8.85163,10.6023Z" transform="translate(-81.696 -70.99933)" fill="#6c63ff"/><path d="M418.68387,422.4858l1.09994.41487a258.75273,258.75273,0,0,0-55.33222-25.86409l24.94287,82.255q23.50268,19.46677,43.5136,39.25433Z" transform="translate(-81.696 -70.99933)" fill="#6c63ff"/><path d="M255.02691,503.88762a216.05233,216.05233,0,0,0,21.31755,37.971L422.4364,510.49694c-11.802-11.20948-23.569-21.50037-34.7458-30.73253L255.74751,504.88216Z" transform="translate(-81.696 -70.99933)" fill="#6c63ff"/><path d="M286.44517,555.44218l-.74119-.98555,147.19536-33.7807q-4.24026-4.22852-8.49522-8.30336L277.77305,543.85l-.734-.98968Q281.45714,549.15735,286.44517,555.44218Z" transform="translate(-81.696 -70.99933)" fill="#6c63ff"/><path d="M453.6531,447.41964l1.10673.47872a309.00285,309.00285,0,0,0-33.83345-24.295l14.41676,97.35915q13.26857,13.27039,24.86475,26.58953Z" transform="translate(-81.696 -70.99933)" fill="#6c63ff"/><path d="M500.73671,602.57809c13.68223,22.75583,23.39739,45.319,29.017,67.44711,2.46-19.64618,9.93312-100.15211-22.82993-162.269Z" transform="translate(-81.696 -70.99933)" fill="#6c63ff"/><path d="M328.85594,596.6541a298.92362,298.92362,0,0,0,34.09375,20.94811l-.74592-1.1205L497.971,601.30138a371.62736,371.62736,0,0,0-25.53936-36.48876Z" transform="translate(-81.696 -70.99933)" fill="#6c63ff"/><path d="M335.09144,439.88812c-36.06342-25.167-62.81645-39.78683-63.20087-39.99563l.09948-.80944c-17.726,10.56492-27.00651,27.97762-28.31589,49.24107Z" transform="translate(-81.696 -70.99933)" fill="#6c63ff"/><path d="M473.03677,562.94151c.87775,1.10235,1.76465,2.205,2.62431,3.30693A369.22021,369.22021,0,0,1,498.671,599.18375l6.12819-93.923,1.0737.549a146.38026,146.38026,0,0,0-21.47326-30.06367q-4.97415-5.32573-10.16136-10.37277Z" transform="translate(-81.696 -70.99933)" fill="#6c63ff"/><path d="M385.45615,477.92741c-16.59913-13.60194-32.87061-25.74013-47.68136-36.1589l-93.51495,8.62891-.65266-1.0035c-.78364,16.08973,2.94631,34.33059,10.98045,53.44664Z" transform="translate(-81.696 -70.99933)" fill="#6c63ff"/><path d="M499.19639,603.31787,364.42267,618.38692c70.86377,37.27629,158.80011,54.94738,164.4045,56.04939C523.23008,649.6846,512.69641,625.81541,499.19639,603.31787Z" transform="translate(-81.696 -70.99933)" fill="#6c63ff"/><path d="M470.80878,562.86414l.00115-.09235a501.541,501.541,0,0,0-36.02758-40.20745L287.22473,556.428q6.79569,8.48448,14.60959,16.86712a179.711,179.711,0,0,0,24.57837,21.59267Z" transform="translate(-81.696 -70.99933)" fill="#6c63ff"/><path d="M1118.304,705.00067c0,44.73507-230.12564,124-514,124s-514-79.26493-514-124,230.12564-38,514-38S1118.304,660.26561,1118.304,705.00067Z" transform="translate(-81.696 -70.99933)" fill="#3f3d56"/><path d="M1118.304,705.00067c0,44.73507-230.12564,124-514,124s-514-79.26493-514-124,230.12564-38,514-38S1118.304,660.26561,1118.304,705.00067Z" transform="translate(-81.696 -70.99933)" opacity="0.1"/><ellipse cx="522.608" cy="634.00135" rx="514" ry="81" fill="#3f3d56"/><path d="M693.41688,620.33814c0,48.73748-67.93425,33.66253-151.11288,33.66253s-150.10359,15.07495-150.10359-33.66253,67.925-59.33747,151.10359-59.33747S693.41688,571.60066,693.41688,620.33814Z" transform="translate(-81.696 -70.99933)" opacity="0.1"/><path d="M693.41688,608.33814c0,48.73748-67.93425,33.66253-151.11288,33.66253s-150.10359,15.07495-150.10359-33.66253,67.925-59.33747,151.10359-59.33747S693.41688,559.60066,693.41688,608.33814Z" transform="translate(-81.696 -70.99933)" fill="#3f3d56"/><path d="M425.83407,474.23234a21.86993,21.86993,0,0,1,5.98677-3.00229,152.65523,152.65523,0,0,1,42.18185-9.18232c12.54265-.88942,26.13665.167,35.93311,8.04977a12.35544,12.35544,0,0,1,3.64492,4.24652c1.23248,2.65959.859,5.75109.46,8.65509a9.78,9.78,0,0,1-.83931,3.25829c-1.31827,2.51-4.56392,3.38927-7.383,3.0883s-5.46439-1.49376-8.245-2.04679a36.85589,36.85589,0,0,0-5.20754-.53034l-17.43968-.94414c-10.84462-.58711-21.83214-1.16444-32.46982,1.02423a32.343,32.343,0,0,0-9.38119,3.23271c-2.42968,1.36413-4.06577,3.32156-6.32025.802C422.79407,486.45675,420.60169,478.321,425.83407,474.23234Z" transform="translate(-81.696 -70.99933)" fill="#2f2e41"/><path d="M452.8586,481.94446s23.457-10.51523,32.35455,1.61772S480.36,490.842,480.36,490.842l-15.36841,4.85318-16.98614-3.23545Z" transform="translate(-81.696 -70.99933)" fill="#f2f2f2"/><path d="M454.07189,474.26025s3.23546,15.36841.80887,19.41273,13.75068,9.70637,13.75068,9.70637l15.36842-6.47091s-4.04432-25.07478,0-29.928Z" transform="translate(-81.696 -70.99933)" fill="#ffb9b9"/><path d="M454.07189,474.26025s3.23546,15.36841.80887,19.41273,13.75068,9.70637,13.75068,9.70637l15.36842-6.47091s-4.04432-25.07478,0-29.928Z" transform="translate(-81.696 -70.99933)" opacity="0.1"/><path d="M438.91514,659.055a88.47424,88.47424,0,0,1,5.34515,14.00761,1.13958,1.13958,0,0,0,1.41573.94168l14.38749-.016c1.77552-.002,4.15772-.5724,4.13926-2.34783-.013-1.24744-1.28812-2.02527-2.23712-2.835-2.63375-2.24729-3.31943-5.95275-4.41024-9.23864a31.343,31.343,0,0,0-11.66228-15.66368,6.8256,6.8256,0,0,0-2.49321-1.23227,6.95106,6.95106,0,0,0-2.7334.1483c-2.52558.50955-11.957,2.253-10.17536,5.92661.76713,1.58175,3.61015,3.22829,4.8021,4.70595A33.797,33.797,0,0,1,438.91514,659.055Z" transform="translate(-81.696 -70.99933)" fill="#575a89"/><path d="M488.94606,642.36827a32.69011,32.69011,0,0,1-1.69144,3.10941c-2.08436,3.43771-4.5441,6.64447-6.48513,10.1651a16.77837,16.77837,0,0,0-2.36367,7.07364,7.85727,7.85727,0,0,0,2.74578,6.68522c2.08857,1.58487,4.952,1.65821,7.54773,1.289s5.17635-1.11321,7.79085-.91732c-.88147-4.98817,3.32536-9.37828,4.37749-14.33326.29553-1.39177.33944-2.83476.73555-4.2013a20.59077,20.59077,0,0,1,1.62837-3.60077,46.5558,46.5558,0,0,0,4.39382-12.959c.09907-.54715-12.78919-.63687-13.99816-.37542C489.85445,635.11949,490.40626,639.23979,488.94606,642.36827Z" transform="translate(-81.696 -70.99933)" fill="#575a89"/><path d="M389.609,564.00242c-3.67926,5.75777-2.83151,13.388-.24741,19.71345s6.697,11.91723,9.51192,18.14337c1.79459,3.96928,3.053,8.178,5.07387,12.037,2.50239,4.77857,6.156,8.99059,7.83521,14.11671,1.07041,3.26765,1.316,6.849,3.04991,9.81831a30.09159,30.09159,0,0,0,3.57244,4.43205,40.95646,40.95646,0,0,1,8.234,14.7077c1.58472-4.72089,6.33022-7.8162,11.2042-8.83717s9.92419-.32742,14.855.36909c-2.75058-4.261-5.52777-8.57617-7.16736-13.37552-1.58573-4.64172-2.05359-9.58-3.12174-14.36736-2.19045-9.81738-6.86973-18.87236-11.50213-27.801l23.81029-1.8886a92.82879,92.82879,0,0,1,11.69831-.43389c6.14573.28968,12.16647,1.79623,18.2795,2.49255s12.57982.514,18.02759-2.34536a86.39039,86.39039,0,0,0-15.5,51.01943,19.75315,19.75315,0,0,1,29.90159,7.0566c9.33111-12.75121,8.2218-30.50282,15.61567-44.46683,1.52038-2.87139,3.38369-5.54593,5.02464-8.35017a123.08909,123.08909,0,0,0,7.93915-17.54444c2.06832-5.29,4.15178-11.17615,2.16807-16.49844a17.22617,17.22617,0,0,0-3.53474-5.43568c-4.26614-4.70334-10.20408-8.18256-16.55235-8.32746-9.74524-.22243-17.79567,7.00122-26.34427,11.68531a60.62321,60.62321,0,0,1-33.26911,6.89937c-11.74242-.83143-22.957-4.67515-34.14438-8.06023a162.45373,162.45373,0,0,0-17.04035-4.39578c-4.7975-.89991-9.36657.09692-14.09435,1.32377C397.74478,557.025,392.57148,559.36639,389.609,564.00242Z" transform="translate(-81.696 -70.99933)" fill="#2f2e41"/><path d="M491.27963,458.89184a24.28582,24.28582,0,0,1-24.26591,24.26591,23.68115,23.68115,0,0,1-4.31126-.38824,24.26492,24.26492,0,1,1,28.57717-23.87767Z" transform="translate(-81.696 -70.99933)" fill="#ffb9b9"/><path d="M452.8586,481.94446s4.44875,2.02215,6.06648,3.63988,6.47091,10.51523,14.55955,4.85319,8.8975-8.89751,11.32409-8.89751,5.66205,4.85319,5.66205,4.85319l22.24375,66.73126a93.15972,93.15972,0,0,1-20.626,17.39058c-12.94182,8.08863-28.31023,12.133-35.59,8.8975s-21.03046-5.66205-23.45706-12.133-6.47091-25.88364-6.47091-25.88364l11.3241-49.3407Z" transform="translate(-81.696 -70.99933)" fill="#f2f2f2"/><path d="M449.73549,549.43449c1.76345-3.80907,2.0199-8.12059,2.16907-12.31541a74.65427,74.65427,0,0,0-.3292-12.4584c-.71682-5.41064-2.47876-10.62327-3.5915-15.96655a67.49957,67.49957,0,0,1-1.41454-14.24991c.01623-2.18418.17435-4.48353,1.36455-6.315.83032-1.27771,2.12909-2.26727,2.64794-3.7,1.01735-2.80929-1.49634-5.75081-4.25111-6.90768A16.72649,16.72649,0,0,0,435.86,477.1012a49.8177,49.8177,0,0,0-9.84918,4.02919,22.5485,22.5485,0,0,0-6.43519,4.16c-2.51083,2.59819-3.61487,6.21693-4.50635,9.71837-.71352,2.80246-1.34765,5.72477-.80478,8.56522.88158,4.6126,4.64178,8.08175,6.64629,12.32852,2.32768,4.93144,2.17091,10.67825,1.24509,16.05226s-2.56937,10.62847-3.07618,16.058.27118,11.266,3.67287,15.52814c1.38621,1.73684,5.14669,5.85307,7.68439,5.38734,1.99364-.36588,4.884-4.75455,6.49-6.14569C441.56647,558.76379,447.0713,555.18919,449.73549,549.43449Z" transform="translate(-81.696 -70.99933)" fill="#2f2e41"/><path d="M492.11409,479.30657c.07082,4.51128-1.9177,8.79938-4.25634,12.6578s-5.08573,7.50758-6.80909,11.67731a26.76428,26.76428,0,0,0-1.24921,16.46561,53.11985,53.11985,0,0,0,1.7845,5.50966l4.43175,12.15623a21.09914,21.09914,0,0,0,2.5699,5.39558,17.42378,17.42378,0,0,0,3.49265,3.35986,32.59666,32.59666,0,0,0,11.39554,5.94495,19.27232,19.27232,0,0,0,12.67169-.72289,183.36486,183.36486,0,0,1,7.87118-48.59781c.88607-2.91154,1.85441-5.97675,1.1709-8.94238-.76561-3.32183-3.43383-5.81583-5.97017-8.09347-7.75675-6.96557-16.28666-14.28224-26.66953-15.22128C486.53866,470.35227,492.06288,476.04506,492.11409,479.30657Z" transform="translate(-81.696 -70.99933)" fill="#2f2e41"/><path d="M439.03277,573.34868c.61521,1.20421.99811,2.51575,1.60646,3.72345a20.80315,20.80315,0,0,0,3.30045,4.438c5.40825,5.99688,12.01918,11.97087,20.08645,12.33261a5.50819,5.50819,0,0,0,2.36752-.298,4.69354,4.69354,0,0,0,2.51958-3.60239c.572-3.13245-.81074-6.25805-2.1952-9.12557-3.00061-6.21491-6.37689-12.58746-11.995-16.59572a22.50579,22.50579,0,0,0-19.417-2.92118c-2.92646.9015-7.77906,2.47573-3.90448,5.14569C434.341,568.4711,437.32865,570.013,439.03277,573.34868Z" transform="translate(-81.696 -70.99933)" fill="#ffb9b9"/><path d="M473.906,494.22447a18.078,18.078,0,0,0-3.796-6.12052,14.08278,14.08278,0,0,0-5.7985-2.93766,31.71,31.71,0,0,0-8.50622-1.21914c-3.42562-.02133-7.39764.89755-8.85234,3.999-1.15518,2.46287-.25964,5.37929.90344,7.83844a7.68532,7.68532,0,0,0,2.39795,3.2393c1.47726.99811,3.38784.96648,5.13906,1.3008a23.70319,23.70319,0,0,1,7.59548,3.44186l6,3.62674,10.30578,6.22945c-.27157-.16415-.175-7.23144-.49156-8.38969C477.78338,501.50193,475.48791,497.7578,473.906,494.22447Z" transform="translate(-81.696 -70.99933)" fill="#ffb9b9"/><path d="M443.88546,671.23125c-2.41147,3.277-1.928,7.96134-4.06406,11.42415-1.8516,3.00161-5.34113,4.57544-7.65712,7.23519a19.3957,19.3957,0,0,0-1.96864,2.83187c-2.14841,3.59866-3.89467,8.2108-1.77877,11.82867,1.70211,2.91036,5.27988,4.04783,8.5611,4.82308,4.14726.97987,8.4563,1.7641,12.65145,1.01532s8.29512-3.3176,9.79091-7.30791a28.22932,28.22932,0,0,1,1.04688-2.9542c2.27381-4.4764,9.40591-4.52479,11.733-8.97373,1.62853-3.11345.13151-6.87688-1.36489-10.056L466.265,671.3881c-1.5167-3.22219-7.66515-1.36915-10.87048-2.14129C451.21408,668.23977,446.89284,667.13027,443.88546,671.23125Z" transform="translate(-81.696 -70.99933)" fill="#2f2e41"/><path d="M479.23589,662.89a12.99582,12.99582,0,0,0-4.13516,5.665c-2.26188,5.21831-3.0387,10.939-3.79292,16.57619a20.07506,20.07506,0,0,0-.13081,6.79883c.97469,4.60379,5.14648,7.99395,9.63686,9.40159s9.3065,1.19092,14.00669.96034a10.02775,10.02775,0,0,0,4.40285-.89413c2.36222-1.30228,3.285-4.36432,2.88-7.03113s-1.862-5.03965-3.2881-7.32923-2.8844-4.66116-3.29284-7.32746c-.68707-4.48508,1.25176-11.06873-1.50366-15.12644C491.25739,660.51711,482.92117,660.30722,479.23589,662.89Z" transform="translate(-81.696 -70.99933)" fill="#2f2e41"/><path d="M490.66923,446.24574a6.15933,6.15933,0,0,0-2.67141-3.487,14.1362,14.1362,0,0,0-.564-4.60169c-1.46953-4.34444-4.95079-4.09542-8.23547-6.01617-1.42509-.83336-1.33706-1.56989-2.07893-2.93865a10.90656,10.90656,0,0,0-4.20255-4.28786c-2.10732-1.34264-4.33179-2.72537-6.82474-2.8953-5.23895-.35709-9.25572,4.57054-14.263,6.152-2.20709.697-4.57869.72578-6.79743,1.38476s-4.43236,2.23247-4.763,4.52325c-.15265,1.05758.11666,2.14252-.03816,3.19981-.30782,2.1014-2.15146,3.57314-3.38564,5.30155-2.72922,3.82216-2.41706,9.22181-.2345,13.38047a18.80749,18.80749,0,0,0,1.57379,2.46278,15.14972,15.14972,0,0,0,1.66166,5.62586c2.18256,4.15865,5.93822,7.26624,9.86149,9.84805a23.2761,23.2761,0,0,1-.58192-4.19944,2.89689,2.89689,0,0,1,.17857-1.39141c.43692-.91333,1.59142-1.15623,2.47167-1.65644,1.8232-1.03606,2.53816-3.32891,2.59089-5.42527s-.39155-4.19618-.1719-6.28163a3.43232,3.43232,0,0,1,1.175-2.52484,4.05857,4.05857,0,0,1,2.21524-.52815c3.73557-.1524,7.63864-.221,10.93364-1.98755a16.20315,16.20315,0,0,1,3.40311-1.7215c2.80022-.73022,5.6622,1.23245,7.276,3.63456s2.41845,5.26062,3.90742,7.74206,4.0613,4.69432,6.94017,4.40032a1.15207,1.15207,0,0,0,.85976-.38231,1.28885,1.28885,0,0,0,.15838-.73249l.16084-11.00458A16.63311,16.63311,0,0,0,490.66923,446.24574Z" transform="translate(-81.696 -70.99933)" fill="#2f2e41"/><path d="M413.875,503.80881c-2.31524,3.41564-4.98477,6.69979-6.25737,10.625-.748,2.30712-.98029,4.746-1.52183,7.11012-1.80374,7.87435-7.01474,14.86833-7.53852,22.92962a10.90193,10.90193,0,0,0,.76562,5.26486c1.49482,3.2516,5.07236,4.96527,8.48491,6.04319s7.07732,1.85456,9.80117,4.17578a30.03568,30.03568,0,0,1,3.714,4.30558,35.97558,35.97558,0,0,0,17.18419,11.75745c-.53415-3.68051-.78481-8.11672,2.15728-10.3917,1.5926-1.23147,3.72064-1.45065,5.72635-1.624l9.47737-.819a121.78575,121.78575,0,0,0-20.77548-16.18434c-2.62062-1.6189-5.47294-3.32657-6.66954-6.165a14.89059,14.89059,0,0,1-.75557-5.68764,140.15519,140.15519,0,0,0-1.78537-21.04066c-.78019-4.83176-1.81329-9.62039-2.99483-14.37-.33169-1.33338-2.29216-7.31424-4.70528-5.91478-.56839.32964-1.10021,4.1236-1.43209,4.91084A29.78478,29.78478,0,0,1,413.875,503.80881Z" transform="translate(-81.696 -70.99933)" fill="#2f2e41"/><path d="M523.03153,490.90112l3.87029,8.04913a19.34076,19.34076,0,0,1,2.4401,10.884l.22974,24.14489a35.16181,35.16181,0,0,1-.794,9.61452,7.69953,7.69953,0,0,1-1.33477,2.87088,8.97338,8.97338,0,0,1-2.289,1.84392c-7.32483,4.57668-16.823,7.17792-24.5619,3.34276a33.99033,33.99033,0,0,1-5.03566-3.28722c-3.08431-2.28408-6.21414-4.61273-8.52151-7.67965-2.41491-3.20986-3.79885-7.0528-5.42349-10.72643a82.43023,82.43023,0,0,0-11.20567-18.37924,4.84641,4.84641,0,0,1-1.38758-2.75066c-.048-2.11635,2.463-3.15821,4.42079-3.9634,3.34473-1.3756,6.49875-4.03,7.05864-7.603,7.11253,9.32716,14.96123,19.18207,26.18477,22.59034a1.15808,1.15808,0,0,0,1.78133-.98986c.63692-2.66569.86225-5.41059,1.32832-8.1114a46.2023,46.2023,0,0,1,4.87417-14.05655C515.99519,494.232,520.29963,485.21951,523.03153,490.90112Z" transform="translate(-81.696 -70.99933)" fill="#2f2e41"/><path d="M426.99021,514.17772a37.12338,37.12338,0,0,1-3.54677,16.543,13.67005,13.67005,0,0,0-1.38883,3.64424c-.42455,2.71937,1.123,5.352,2.89185,7.46072a30.6782,30.6782,0,0,0,13.11679,9.12533" transform="translate(-81.696 -70.99933)" opacity="0.1"/><path d="M511.03266,509.362c-.57024,1.5335-.05237,3.22943.38712,4.80539a48.418,48.418,0,0,1,1.76459,14.04911.51134.51134,0,0,1-.598.6129c-1.867.11438-4.00444.12647-5.27113-1.24987" transform="translate(-81.696 -70.99933)" opacity="0.1"/><ellipse cx="746.608" cy="640.00135" rx="126" ry="27" opacity="0.1"/><polygon points="809.608 399.001 800.608 408.001 809.608 417.001 818.608 399.001 809.608 399.001" fill="#a0616a"/><path d="M893.33043,391.96008c2.52577,1.03368,3.727,3.85932,4.67885,6.417l11.6749,31.37147,2.27246,6.1063c1.11443,2.99457,2.22953,5.99109,3.172,9.04413q.89427,2.8968,1.57879,5.85289a15.39209,15.39209,0,0,1,.5382,5.189,14.42116,14.42116,0,0,1-2.06333,5.406,48.3941,48.3941,0,0,1-16.81558,17.24681,15.69677,15.69677,0,0,0-9.12632-11.93588l6.037-3.32029a10.91643,10.91643,0,0,0,3.383-2.47763,7.43092,7.43092,0,0,0,1.29186-5.66328,24.341,24.341,0,0,0-1.79221-5.68156,155.06312,155.06312,0,0,1-5.26538-15.45409c-.87689-3.09968-1.6824-6.28529-3.42013-8.99772-1.57643-2.46065-3.85922-4.42835-5.29161-6.97555-2.183-3.882-2.12705-8.6618-1.1631-13.00994.81382-3.671,2.17862-7.2039,3.32675-10.77772C887.24869,391.49193,890.62635,390.85342,893.33043,391.96008Z" transform="translate(-81.696 -70.99933)" fill="#d0cde1"/><path d="M837.66793,308.14366c-4.64226,1.56776-8.84795,5.23462-9.79858,10.04136-.44066,2.22814-.17049,4.54441-.54132,6.78523-.86,5.19695-4.93947,9.1659-8.70206,12.85248s-7.64818,7.97024-7.92279,13.23071c-.3007,5.76034,3.87688,11.15685,3.154,16.87955-.83985,6.64861-7.86216,10.95679-9.59808,17.4295-1.15915,4.32211.26127,8.97788,2.5982,12.794,4.45326,7.27209,12.06524,12.2091,20.17142,14.85574s16.73945,3.20345,25.26628,3.2928c10.3824.10878,21.655-.78256,29.45579-7.63482a23.59753,23.59753,0,0,0,7.834-15.36246c.74108-7.93734-2.57175-16.13874-.28664-23.77607,1.43813-4.80651,5.04459-9.19621,4.50637-14.18431-.52624-4.87711-4.78588-8.33411-7.7081-12.27413-2.72841-3.6787-4.384-8.023-6.00662-12.30606l-5.55184-14.65459c-1.0914-2.88083-2.28987-5.91071-4.72209-7.8015-4.55335-3.53969-11.87494-2.84423-17.19923-2.11417C847.67722,306.87422,842.418,306.53951,837.66793,308.14366Z" transform="translate(-81.696 -70.99933)" fill="#2f2e41"/><path d="M841.96266,356.439s.54342,16.30243-1.08683,17.93268,6.521,12.49853,6.521,12.49853l14.67219-.54341,7.60781-5.97756-6.521-8.69464s-2.71707-14.12877-.54341-17.38926S841.96266,356.439,841.96266,356.439Z" transform="translate(-81.696 -70.99933)" fill="#a0616a"/><path d="M841.96266,356.439s.54342,16.30243-1.08683,17.93268,6.521,12.49853,6.521,12.49853l14.67219-.54341,7.60781-5.97756-6.521-8.69464s-2.71707-14.12877-.54341-17.38926S841.96266,356.439,841.96266,356.439Z" transform="translate(-81.696 -70.99933)" opacity="0.1"/><polygon points="726.303 411.24 735.541 431.89 742.606 423.195 728.477 404.719 726.303 411.24" fill="#a0616a"/><polygon points="701.578 618.009 697.774 639.203 691.253 648.441 695.057 650.614 701.578 649.527 709.186 646.81 712.446 634.312 718.424 618.009 701.578 618.009" fill="#a0616a"/><polygon points="771.135 604.967 768.961 635.399 774.395 639.746 783.09 632.138 783.09 609.858 771.135 604.967" fill="#a0616a"/><circle cx="769.233" cy="272.126" r="19.56292" fill="#a0616a"/><path d="M866.02481,369.43768a4.52806,4.52806,0,0,0-3.76939-.0725,30.5917,30.5917,0,0,0-3.44959,1.79785,15.97937,15.97937,0,0,1-9.28728,1.68905,3.19455,3.19455,0,0,1-1.08536-.27935,5.22152,5.22152,0,0,1-.99472-.80284,5.75681,5.75681,0,0,0-7.97129.68715c-.57461.71588-.968,1.5706-1.595,2.24107-1.624,1.73654-4.30372,1.80688-6.68127,1.80258a61.95314,61.95314,0,0,0-14.67905,1.34544,26.88517,26.88517,0,0,0-12.89017,6.8304,9.81674,9.81674,0,0,0-2.28983,3.26469c-.65568,1.69087-.56948,3.59013-1.15884,5.30525-.65632,1.90994-2.11018,3.47711-2.6986,5.40905-.4432,1.45513-.38142,3.07507-1.123,4.40322,3.17568,2.74872,5.86622,6.41428,9.04189,9.163,2.10264,1.82,4.30415,3.78875,5.09447,6.455a21.13034,21.13034,0,0,1,.47016,5.00559c.393,8.03813,4.75236,15.32985,9.6274,21.733a24.50817,24.50817,0,0,0,4.75111,5.04767,20.62123,20.62123,0,0,0,8.20184,3.29341c5.55157,1.13556,11.2658,1.12979,16.932,1.0734,5.85592-.05828,11.81486-.18242,17.38117-2.00211a15.45375,15.45375,0,0,0,7.34645-4.56193c2.28979-2.812,3.18309-6.87986,6.30674-8.722a11.46178,11.46178,0,0,0,2.13628-1.2759,5.54156,5.54156,0,0,0,1.30878-2.44284,37.83953,37.83953,0,0,0,1.78858-10.5466,30.68718,30.68718,0,0,1,.435-6.42147,21.83535,21.83535,0,0,1,2.3404-5.31412l6.47307-11.7396c.5261-.95414.38954-2.35808.43719-3.44661a8.49881,8.49881,0,0,0-1.39221-4.40755,37.60356,37.60356,0,0,0-18.70468-16.37334,7.70833,7.70833,0,0,1-1.7667-.86558,7.26975,7.26975,0,0,1-1.61746-1.92954C871.22549,372.19207,869.12705,369.276,866.02481,369.43768Z" transform="translate(-81.696 -70.99933)" fill="#d0cde1"/><path d="M785.3493,433.37388a46.58087,46.58087,0,0,0-2.79585,9.64085,23.42167,23.42167,0,0,0,2.11672,13.36447c3.48834,7.18055,10.35607,12.05067,15.20326,18.39367,4.50364,5.89344,7.18563,12.9573,11.0855,19.26654-.6801-1.60608.14607-3.46538,1.259-4.80833s2.53561-2.45669,3.35164-3.99815a11.65764,11.65764,0,0,0,1.03287-3.78318c.58214-3.9122.89641-8.16311-1.09824-11.5786-1.50148-2.571-4.09469-4.27866-6.14816-6.43456a19.18132,19.18132,0,0,1-4.85613-16.60329c.39533-2.03384,1.12217-3.98637,1.66677-5.98541a68.46458,68.46458,0,0,0,1.52743-8.16013l2.44716-16.80766c.65088-4.4704,1.20138-9.41757-1.33043-13.159a5.51272,5.51272,0,0,0-1.98625-1.87922,7.13631,7.13631,0,0,0-2.1136-.5952c-2.663-.43527-6.27073-1.60164-7.571,1.25212-1.56931,3.44432-2.66249,7.19888-3.9762,10.75023Z" transform="translate(-81.696 -70.99933)" fill="#d0cde1"/><path d="M878.6142,442.5702s-32.30422,6.24926-39.912,6.24926H825.11681s-4.89073,8.69464-4.89073,17.38927-32.06146,130.4195-32.06146,130.4195-30.43122,99.98828,3.26049,100.53169,54.88487,2.17366,55.42828-9.238,3.80391-158.67706,3.80391-158.67706l5.07237,75.72325a187.98689,187.98689,0,0,1-4.319,55.90542c-2.43265,10.2674-2.05527,21.52367,10.115,23.7879,23.36682,4.34732,52.71121.54341,52.71121-7.6078s-15.21561-189.10828-15.21561-189.10828-7.6078-26.62731-11.95512-28.801S878.6142,442.5702,878.6142,442.5702Z" transform="translate(-81.696 -70.99933)" fill="#2f2e41"/><path d="M777.29633,718.35309l11.95512-4.34731,8.15122-20.64976,8.69463-1.08683s-4.89073,10.32488-7.6078,11.95512-7.06439,15.21561-7.06439,15.21561,2.17366,5.43415-8.15122,7.60781-17.93268,3.8039-17.93268,3.8039-1.08683-2.17366,3.8039-7.60781,10.60141-14.58262,10.60141-14.58262Z" transform="translate(-81.696 -70.99933)" fill="#2f2e41"/><path d="M850.6573,693.356l-2.17366,16.30244s5.97756,8.69463,7.6078,8.69463,10.32488-7.6078,10.32488-7.6078-.54342-8.15122,0-10.32488,1.63024-12.49853,0-13.04195-1.63025,12.1113-1.63025,12.1113l-7.06438,7.45163-6.81149-4.08412Z" transform="translate(-81.696 -70.99933)" fill="#2f2e41"/><ellipse cx="770.86325" cy="260.7143" rx="21.19317" ry="11.41171" fill="#2f2e41"/><path d="M81.696,555.65948c0,64.01613,40.16035,115.81717,89.79084,115.81717" transform="translate(-81.696 -70.99933)" fill="#3f3d56"/><path d="M171.48684,671.47665c0-64.73541,44.81662-117.11848,100.20136-117.11848" transform="translate(-81.696 -70.99933)" fill="#6c63ff"/><path d="M114.22891,561.46265c0,60.80852,25.6095,110.014,57.25793,110.014" transform="translate(-81.696 -70.99933)" fill="#6c63ff"/><path d="M171.48684,671.47665c0-82.71747,51.801-149.65139,115.81716-149.65139" transform="translate(-81.696 -70.99933)" fill="#3f3d56"/><path d="M152.59716,672.29318s12.73382-.39219,16.57147-3.12493,19.58782-5.99579,20.53985-1.61307,19.13656,21.79764,4.76014,21.9136-33.4044-2.23935-37.23467-4.57251S152.59716,672.29318,152.59716,672.29318Z" transform="translate(-81.696 -70.99933)" fill="#a8a8a8"/><path d="M194.72518,687.94314c-14.37642.116-33.40439-2.23933-37.23466-4.57251-2.917-1.77683-4.07933-8.15253-4.46825-11.094-.26935.01158-.42511.01657-.42511.01657s.80653,10.26991,4.63681,12.60309,22.85824,4.6885,37.23466,4.5725c4.1499-.03347,5.58335-1.50994,5.50464-3.69673C199.39675,687.09323,197.814,687.91824,194.72518,687.94314Z" transform="translate(-81.696 -70.99933)" opacity="0.2"/></svg>